# xmcd CD database file
#
# Track frame offsets:
#	150
#	16283
#	35166
#	51250
#	64679
#	80335
#	96948
#	115514
#	130818
#	140658
#	157314
#
# Disc length: 2408 seconds
#
# Revision: 0
# Processed by: cddbd v1.5PL3 Copyright (c) Steve Scherf et al.
# Submitted via: CDex 1.51
#
DISCID=9709660b
DTITLE=Don_Cubano - Tic_Tac
DYEAR=2004
DGENRE=Salsa
TTITLE0=Tic_Tac
TTITLE1=El_Manisero
TTITLE2=Yo_Soy_El_Punto_Cubano
TTITLE3=Amor_Fugaz
TTITLE4=Cachita
TTITLE5=Campay_Gato
TTITLE6=La_Negra_Leonor
TTITLE7=Beso_Discreto
TTITLE8=La_Gota_De_Agua
TTITLE9=El_Fiel_Enamorado
TTITLE10=El_Cafetal
EXTD=YEAR: 2004
EXTT0=
EXTT1=
EXTT2=
EXTT3=
EXTT4=
EXTT5=
EXTT6=
EXTT7=
EXTT8=
EXTT9=
EXTT10=
PLAYORDER=
